<svg width="28" height="21" viewBox="0 0 28 21" fill="none" xmlns="http://www.w3.org/2000/svg">
<path d="M25.4799 4.47597C23.9626 2.96772 21.8536 2.03133 19.5358 2.03177H16.5437L17.1553 0.588585C17.218 0.441016 17.1804 0.270966 17.0617 0.163106C16.9431 0.0553011 16.7693 0.0328737 16.6265 0.107525L11.528 2.78315C11.4026 2.84827 11.325 2.9772 11.325 3.11697C11.325 3.25717 11.4027 3.3861 11.528 3.45084L16.6265 6.12685C16.7685 6.2015 16.9422 6.17912 17.0617 6.0717C17.1804 5.96389 17.218 5.79346 17.1553 5.64622L16.5429 4.20136H19.5358C21.257 4.20223 22.8052 4.89104 23.9341 6.01032C25.0621 7.13084 25.7556 8.66812 25.7564 10.3767C25.7556 12.0853 25.0621 13.6222 23.9341 14.7431C22.8053 15.8624 21.257 16.5512 19.5358 16.552V18.7217C21.8536 18.7222 23.9625 17.7858 25.4798 16.2775C26.9997 14.7709 27.9431 12.6779 27.9422 10.3768C27.9431 8.07557 26.9997 5.98258 25.4799 4.47597Z" fill="#E3E3E3"/>
<path d="M16.4143 17.3027L11.3158 14.6266C11.1738 14.552 11 14.5744 10.8805 14.6818C10.7618 14.7896 10.7242 14.9601 10.7869 15.1073L11.3994 16.5521H8.40642C6.68524 16.5513 5.13696 15.8624 4.00813 14.7432C2.88013 13.6222 2.18665 12.0854 2.18583 10.3768C2.1867 8.66827 2.88018 7.13093 4.00813 6.01041C5.13696 4.89113 6.68524 4.20231 8.40642 4.20145V2.0318C6.08863 2.03137 3.97976 2.96775 2.46236 4.476C0.942506 5.98262 -0.000818089 8.07561 5.3237e-07 10.3768C-0.000818089 12.678 0.942506 14.771 2.46236 16.2776C3.9797 17.7859 6.08863 18.7223 8.40642 18.7218H11.3985L10.7869 20.165C10.7243 20.3126 10.7619 20.4826 10.8805 20.5905C10.9991 20.6983 11.1729 20.7207 11.3158 20.646L16.4143 17.9704C16.5396 17.9052 16.6173 17.7763 16.6173 17.6365C16.6174 17.4964 16.5396 17.3674 16.4143 17.3027Z" fill="#E3E3E3"/>
</svg>
