<svg width="25" height="21" viewBox="0 0 25 21" fill="none" xmlns="http://www.w3.org/2000/svg">
<path d="M18.7663 0.0637817V3.13753C17.9933 3.26282 17.2494 3.57904 16.5586 4.05402C15.4876 4.79034 14.49 5.84171 13.458 7.04922C11.3939 9.46423 9.19018 12.5265 6.38631 15.0982C5.88773 15.5555 5.04343 15.7763 3.92289 15.8153C2.80236 15.8542 1.45813 15.7266 0.0654297 15.7266V17.7892C1.35809 17.7892 2.70462 17.9201 3.97768 17.8758C5.25074 17.8316 6.50286 17.6266 7.4983 16.7136C10.4836 13.9756 12.7574 10.8105 14.7343 8.49747C15.7228 7.34096 16.6369 6.40331 17.4757 5.82656C17.9319 5.51295 18.3533 5.31304 18.7663 5.20819V8.31417L24.9999 4.18898L18.7663 0.0637817ZM3.97768 3.07106C2.70462 3.02679 1.35809 3.15768 0.0654297 3.15768V5.22027C1.45813 5.22027 2.80236 5.0926 3.92289 5.13165C5.04343 5.17063 5.88773 5.38942 6.38631 5.84671C7.71991 7.06986 8.91257 8.40346 10.0246 9.72616C10.4489 9.21022 10.848 8.73005 11.2563 8.22756C10.1279 6.88958 8.89609 5.51531 7.4983 4.23329C6.50286 3.3203 5.25074 3.11533 3.97768 3.07106ZM13.7299 11.2248C13.3202 11.7318 12.9451 12.1853 12.4982 12.7274C12.8098 13.1075 13.154 13.54 13.458 13.8957C14.49 15.1032 15.4876 16.1545 16.5586 16.8909C17.2494 17.3658 17.9933 17.6821 18.7663 17.8074V20.6898L24.9999 16.5646L18.7663 12.4394V15.7387C18.3533 15.6344 17.9319 15.434 17.4757 15.1203C16.6369 14.5436 15.7228 13.6059 14.7343 12.4494C14.4277 12.0906 14.0524 11.6198 13.7299 11.2248Z" fill="#E3E3E3"/>
</svg>
