<svg width="29" height="22" viewBox="0 0 29 22" fill="none" xmlns="http://www.w3.org/2000/svg">
<path d="M17.4574 21.6898V19.3443C22.0176 19.3443 25.7272 15.662 25.7272 11.1353C25.7272 6.60863 22.0176 2.9263 17.4574 2.9263V0.580872C23.3171 0.580872 28.09 5.31864 28.09 11.1353C28.09 16.952 23.3171 21.6898 17.4574 21.6898ZM17.4574 16.9989V14.6535C19.4067 14.6535 21.0016 13.0703 21.0016 11.1353C21.0016 9.20033 19.4067 7.61717 17.4574 7.61717V5.27173C20.718 5.27173 23.3644 7.89862 23.3644 11.1353C23.3644 14.372 20.718 16.9989 17.4574 16.9989ZM0.917725 11.1353V15.8262H6.82474L13.9132 21.6898V0.580872L6.82474 6.44445H0.917725V11.1353Z" fill="#E3E3E3"/>
</svg>
