<svg width="51" height="42" viewBox="0 0 51 42" fill="none" xmlns="http://www.w3.org/2000/svg">
<path d="M37.5654 0V6.16365C36.0153 6.41489 34.5236 7.04898 33.1383 8.00144C30.9909 9.47794 28.9904 11.5862 26.9209 14.0076C22.7818 18.8503 18.3629 24.991 12.7404 30.1478C11.7406 31.0648 10.0476 31.5075 7.80062 31.5857C5.55366 31.6638 2.85814 31.408 0.0654297 31.408V35.544C2.65754 35.544 5.35767 35.8064 7.91048 35.7177C10.4633 35.629 12.9741 35.2179 14.9702 33.3871C20.9565 27.8967 25.5161 21.5499 29.4803 16.9117C31.4624 14.5926 33.2955 12.7124 34.9775 11.5558C35.8922 10.927 36.7372 10.5261 37.5654 10.3158V16.5441L50.0654 8.27206L37.5654 0ZM7.91048 6.03036C5.35767 5.94158 2.65754 6.20404 0.0654297 6.20404V10.3401C2.85814 10.3401 5.55366 10.0841 7.80062 10.1624C10.0476 10.2405 11.7406 10.6793 12.7404 11.5962C15.4146 14.049 17.8062 16.7232 20.0361 19.3755C20.8869 18.3409 21.6872 17.3781 22.506 16.3704C20.2433 13.6875 17.7732 10.9317 14.9702 8.36092C12.9741 6.53015 10.4633 6.11912 7.91048 6.03036ZM27.4661 22.3806C26.6446 23.3974 25.8925 24.3067 24.9963 25.3938C25.6211 26.156 26.3113 27.0232 26.9209 27.7364C28.9904 30.1578 30.9909 32.2661 33.1383 33.7426C34.5236 34.695 36.0153 35.3291 37.5654 35.5804V41.3603L50.0654 33.0882L37.5654 24.8162V31.4322C36.7372 31.2231 35.8922 30.8211 34.9775 30.1922C33.2955 29.0357 31.4624 27.1555 29.4803 24.8364C28.8653 24.1168 28.1129 23.1728 27.4661 22.3806Z" fill="#767676"/>
</svg>
