<svg width="50" height="37" viewBox="0 0 50 37" fill="none" xmlns="http://www.w3.org/2000/svg">
<path d="M45.5938 7.89517C42.8786 5.19631 39.1049 3.52074 34.9575 3.52151H29.6034L30.6978 0.939084C30.8099 0.675024 30.7426 0.370735 30.5303 0.177732C30.318 -0.0151752 30.007 -0.055307 29.7514 0.0782737L20.6282 4.86605C20.4039 4.98256 20.2649 5.21328 20.2649 5.46338C20.2649 5.71425 20.404 5.94497 20.6282 6.06081L29.7514 10.8493C30.0055 10.9828 30.3164 10.9428 30.5303 10.7506C30.7426 10.5577 30.81 10.2527 30.6978 9.98922L29.6019 7.40379H34.9574C38.0373 7.40534 40.8077 8.63791 42.8278 10.6407C44.8461 12.6458 46.0871 15.3966 46.0886 18.454C46.087 21.5114 44.8461 24.2614 42.8278 26.2673C40.8078 28.27 38.0373 29.5027 34.9574 29.5041V33.3866C39.1048 33.3874 42.8785 31.7118 45.5937 29.0128C48.3133 26.317 50.0014 22.5718 49.9998 18.454C50.0014 14.3363 48.3133 10.5911 45.5938 7.89517Z" fill="#767676"/>
<path d="M29.3717 30.8473L20.2485 26.0587C19.9944 25.9253 19.6834 25.9653 19.4695 26.1574C19.2572 26.3503 19.1899 26.6554 19.3021 26.9188L20.398 29.5041H15.0425C11.9626 29.5027 9.19208 28.2701 7.17216 26.2673C5.15371 24.2614 3.91279 21.5114 3.91132 18.4541C3.91289 15.3968 5.1538 12.6459 7.17216 10.6408C9.19208 8.638 11.9626 7.40544 15.0425 7.40388V3.52152C10.895 3.52074 7.12138 5.19631 4.40615 7.89517C1.68652 10.5911 -0.00146389 14.3363 9.52624e-07 18.4541C-0.00146389 22.5718 1.68652 26.317 4.40615 29.0129C7.12128 31.7119 10.895 33.3875 15.0425 33.3867H20.3966L19.3021 35.969C19.19 36.2333 19.2573 36.5375 19.4695 36.7305C19.6818 36.9234 19.9928 36.9634 20.2485 36.8298L29.3717 32.0421C29.596 31.9254 29.735 31.6947 29.735 31.4446C29.7351 31.1938 29.596 30.963 29.3717 30.8473Z" fill="#767676"/>
</svg>
