<svg width="50" height="37" viewBox="0 0 50 37" fill="none" xmlns="http://www.w3.org/2000/svg">
<path d="M45.5939 7.8952C42.8787 5.19633 39.105 3.52075 34.9575 3.52153H29.6034L30.6978 0.939087C30.8099 0.675027 30.7427 0.370737 30.5303 0.177732C30.318 -0.0151753 30.007 -0.0553072 29.7514 0.078274L20.6282 4.86606C20.4039 4.98258 20.2649 5.2133 20.2649 5.4634C20.2649 5.71428 20.404 5.94499 20.6282 6.06083L29.7514 10.8493C30.0055 10.9829 30.3165 10.9428 30.5303 10.7506C30.7427 10.5577 30.81 10.2527 30.6978 9.98926L29.6019 7.40382H34.9574C38.0374 7.40537 40.8078 8.63794 42.8278 10.6408C44.8462 12.6459 46.0872 15.3967 46.0887 18.454C46.0871 21.5115 44.8462 24.2615 42.8278 26.2674C40.8079 28.2701 38.0374 29.5028 34.9574 29.5042V33.3867C39.1049 33.3875 42.8786 31.7119 45.5938 29.0129C48.3134 26.3171 50.0015 22.5719 49.9999 18.4541C50.0015 14.3364 48.3134 10.5912 45.5939 7.8952Z" fill="#E3E3E3"/>
<path d="M29.3719 30.8474L20.2486 26.0588C19.9945 25.9254 19.6835 25.9654 19.4696 26.1575C19.2573 26.3504 19.19 26.6555 19.3022 26.9189L20.3981 29.5042H15.0425C11.9626 29.5028 9.19212 28.2702 7.17219 26.2674C5.15373 24.2615 3.9128 21.5115 3.91134 18.4541C3.9129 15.3969 5.15382 12.6459 7.17219 10.6409C9.19212 8.63802 11.9626 7.40545 15.0425 7.4039V3.52152C10.8951 3.52074 7.12141 5.19632 4.40617 7.89519C1.68653 10.5911 -0.0014639 14.3364 9.52628e-07 18.4541C-0.0014639 22.5719 1.68653 26.3171 4.40617 29.013C7.12131 31.712 10.8951 33.3876 15.0425 33.3868H20.3966L19.3022 35.9691C19.1901 36.2334 19.2574 36.5376 19.4696 36.7306C19.6819 36.9235 19.9929 36.9635 20.2486 36.83L29.3719 32.0422C29.5961 31.9255 29.7351 31.6948 29.7351 31.4447C29.7352 31.194 29.5961 30.9631 29.3719 30.8474Z" fill="#E3E3E3"/>
</svg>
