<svg width="50" height="39" viewBox="0 0 50 39" fill="none" xmlns="http://www.w3.org/2000/svg">
<path d="M30.4348 38.8427V34.5269C38.8261 34.5269 45.6522 27.751 45.6522 19.4214C45.6522 11.0918 38.8261 4.31586 30.4348 4.31586V0C41.2174 0 50 8.71803 50 19.4214C50 30.1247 41.2174 38.8427 30.4348 38.8427ZM30.4348 30.211V25.8951C34.0217 25.8951 36.9565 22.9819 36.9565 19.4214C36.9565 15.8608 34.0217 12.9476 30.4348 12.9476V8.63171C36.4348 8.63171 41.3043 13.4655 41.3043 19.4214C41.3043 25.3772 36.4348 30.211 30.4348 30.211ZM0 19.4214V28.0531H10.8696L23.913 38.8427V0L10.8696 10.7896H0V19.4214Z" fill="#E3E3E3"/>
</svg>
